TITLE ""
FILE "P1Q_t_0478-0487.mp3" MP3
  TRACK 01 AUDIO
    TITLE "P1Q_t_0478-0487_01"
    INDEX 01 00:00:00
  TRACK 02 AUDIO
    TITLE "P1Q_t_0478-0487_02"
    INDEX 01 00:01:29
  TRACK 03 AUDIO
    TITLE "P1Q_t_0478-0487_03"
    INDEX 01 00:01:74
  TRACK 04 AUDIO
    TITLE "P1Q_t_0478-0487_04"
    INDEX 01 00:03:40
  TRACK 05 AUDIO
    TITLE "P1Q_t_0478-0487_05"
    INDEX 01 00:03:63
  TRACK 06 AUDIO
    TITLE "P1Q_t_0478-0487_06"
    INDEX 01 00:05:15
  TRACK 07 AUDIO
    TITLE "P1Q_t_0478-0487_07"
    INDEX 01 00:05:37
  TRACK 08 AUDIO
    TITLE "P1Q_t_0478-0487_08"
    INDEX 01 00:11:16
  TRACK 09 AUDIO
    TITLE "P1Q_t_0478-0487_09"
    INDEX 01 00:11:63
  TRACK 10 AUDIO
    TITLE "P1Q_t_0478-0487_10"
    INDEX 01 00:12:74
  TRACK 11 AUDIO
    TITLE "P1Q_t_0478-0487_11"
    INDEX 01 00:13:21
  TRACK 12 AUDIO
    TITLE "P1Q_t_0478-0487_12"
    INDEX 01 00:15:65
  TRACK 13 AUDIO
    TITLE "P1Q_t_0478-0487_13"
    INDEX 01 00:16:11
  TRACK 14 AUDIO
    TITLE "P1Q_t_0478-0487_14"
    INDEX 01 00:21:59
  TRACK 15 AUDIO
    TITLE "P1Q_t_0478-0487_15"
    INDEX 01 00:22:30
  TRACK 16 AUDIO
    TITLE "P1Q_t_0478-0487_16"
    INDEX 01 00:23:62
  TRACK 17 AUDIO
    TITLE "P1Q_t_0478-0487_17"
    INDEX 01 00:24:09
  TRACK 18 AUDIO
    TITLE "P1Q_t_0478-0487_18"
    INDEX 01 00:25:26
  TRACK 19 AUDIO
    TITLE "P1Q_t_0478-0487_19"
    INDEX 01 00:25:49
  TRACK 20 AUDIO
    TITLE "P1Q_t_0478-0487_20"
    INDEX 01 00:29:49
  TRACK 21 AUDIO
    TITLE "P1Q_t_0478-0487_21"
    INDEX 01 00:30:21
  TRACK 22 AUDIO
    TITLE "P1Q_t_0478-0487_22"
    INDEX 01 00:31:40
  TRACK 23 AUDIO
    TITLE "P1Q_t_0478-0487_23"
    INDEX 01 00:31:62
  TRACK 24 AUDIO
    TITLE "P1Q_t_0478-0487_24"
    INDEX 01 00:33:10
  TRACK 25 AUDIO
    TITLE "P1Q_t_0478-0487_25"
    INDEX 01 00:33:29
  TRACK 26 AUDIO
    TITLE "P1Q_t_0478-0487_26"
    INDEX 01 00:38:19
  TRACK 27 AUDIO
    TITLE "P1Q_t_0478-0487_27"
    INDEX 01 00:38:68
  TRACK 28 AUDIO
    TITLE "P1Q_t_0478-0487_28"
    INDEX 01 00:39:69
  TRACK 29 AUDIO
    TITLE "P1Q_t_0478-0487_29"
    INDEX 01 00:40:16
  TRACK 30 AUDIO
    TITLE "P1Q_t_0478-0487_30"
    INDEX 01 00:42:42
  TRACK 31 AUDIO
    TITLE "P1Q_t_0478-0487_31"
    INDEX 01 00:42:64
  TRACK 32 AUDIO
    TITLE "P1Q_t_0478-0487_32"
    INDEX 01 00:47:24
  TRACK 33 AUDIO
    TITLE "P1Q_t_0478-0487_33"
    INDEX 01 00:47:71
  TRACK 34 AUDIO
    TITLE "P1Q_t_0478-0487_34"
    INDEX 01 00:48:74
  TRACK 35 AUDIO
    TITLE "P1Q_t_0478-0487_35"
    INDEX 01 00:49:21
  TRACK 36 AUDIO
    TITLE "P1Q_t_0478-0487_36"
    INDEX 01 00:50:47
  TRACK 37 AUDIO
    TITLE "P1Q_t_0478-0487_37"
    INDEX 01 00:50:67
  TRACK 38 AUDIO
    TITLE "P1Q_t_0478-0487_38"
    INDEX 01 00:54:45
  TRACK 39 AUDIO
    TITLE "P1Q_t_0478-0487_39"
    INDEX 01 00:55:17
  TRACK 40 AUDIO
    TITLE "P1Q_t_0478-0487_40"
    INDEX 01 00:56:25
  TRACK 41 AUDIO
    TITLE "P1Q_t_0478-0487_41"
    INDEX 01 00:56:48
  TRACK 42 AUDIO
    TITLE "P1Q_t_0478-0487_42"
    INDEX 01 00:59:31
  TRACK 43 AUDIO
    TITLE "P1Q_t_0478-0487_43"
    INDEX 01 00:59:50
  TRACK 44 AUDIO
    TITLE "P1Q_t_0478-0487_44"
    INDEX 01 01:04:51
  TRACK 45 AUDIO
    TITLE "P1Q_t_0478-0487_45"
    INDEX 01 01:05:23
  TRACK 46 AUDIO
    TITLE "P1Q_t_0478-0487_46"
    INDEX 01 01:06:52
  TRACK 47 AUDIO
    TITLE "P1Q_t_0478-0487_47"
    INDEX 01 01:06:72
  TRACK 48 AUDIO
    TITLE "P1Q_t_0478-0487_48"
    INDEX 01 01:08:36
  TRACK 49 AUDIO
    TITLE "P1Q_t_0478-0487_49"
    INDEX 01 01:08:57
  TRACK 50 AUDIO
    TITLE "P1Q_t_0478-0487_50"
    INDEX 01 01:13:64
  TRACK 51 AUDIO
    TITLE "P1Q_t_0478-0487_51"
    INDEX 01 01:14:36
  TRACK 52 AUDIO
    TITLE "P1Q_t_0478-0487_52"
    INDEX 01 01:16:06
  TRACK 53 AUDIO
    TITLE "P1Q_t_0478-0487_53"
    INDEX 01 01:16:27
  TRACK 54 AUDIO
    TITLE "P1Q_t_0478-0487_54"
    INDEX 01 01:19:16
  TRACK 55 AUDIO
    TITLE "P1Q_t_0478-0487_55"
    INDEX 01 01:19:35
  TRACK 56 AUDIO
    TITLE "P1Q_t_0478-0487_56"
    INDEX 01 01:23:66
  TRACK 57 AUDIO
    TITLE "P1Q_t_0478-0487_57"
    INDEX 01 01:24:38
  TRACK 58 AUDIO
    TITLE "P1Q_t_0478-0487_58"
    INDEX 01 01:25:61
  TRACK 59 AUDIO
    TITLE "P1Q_t_0478-0487_59"
    INDEX 01 01:26:08
  TRACK 60 AUDIO
    TITLE "P1Q_t_0478-0487_60"
    INDEX 01 01:27:17
  TRACK 61 AUDIO
    TITLE "P1Q_t_0478-0487_61"
    INDEX 01 01:27:37
  TRACK 62 AUDIO
    TITLE "P1Q_t_0478-0487_62"
    INDEX 01 01:31:17
